<mxfile host="app.diagrams.net" modified="2022-01-20T13:39:55.111Z" agent="5.0 (Windows NT 10.0; Win64; x64) AppleWebKit/537.36 (KHTML, like Gecko) Chrome/96.0.4664.110 Safari/537.36 Edg/96.0.1054.62" etag="AzD6cyX0AFO2jUG-eHFK" version="16.2.4" type="github">
  <diagram id="g4tMIMOmOvf5WcDcv_Kk" name="Page-1">
    <mxGraphModel dx="766" dy="451" grid="1" gridSize="10" guides="1" tooltips="1" connect="1" arrows="1" fold="1" page="1" pageScale="1" pageWidth="850" pageHeight="1100" math="0" shadow="0">
      <root>
        <mxCell id="0" />
        <mxCell id="1" parent="0" />
        <mxCell id="E7ZenpUqGneVZJgoKI6S-22" value="" style="rounded=0;whiteSpace=wrap;html=1;" vertex="1" parent="1">
          <mxGeometry x="405" y="110" width="270" height="290" as="geometry" />
        </mxCell>
        <mxCell id="E7ZenpUqGneVZJgoKI6S-21" value="" style="rounded=0;whiteSpace=wrap;html=1;" vertex="1" parent="1">
          <mxGeometry x="10" y="110" width="270" height="290" as="geometry" />
        </mxCell>
        <mxCell id="E7ZenpUqGneVZJgoKI6S-2" value="FMW" style="rounded=0;whiteSpace=wrap;html=1;" vertex="1" parent="1">
          <mxGeometry x="40" y="230" width="60" height="140" as="geometry" />
        </mxCell>
        <mxCell id="E7ZenpUqGneVZJgoKI6S-3" value="non ZDT" style="rounded=0;whiteSpace=wrap;html=1;" vertex="1" parent="1">
          <mxGeometry x="110" y="230" width="60" height="140" as="geometry" />
        </mxCell>
        <mxCell id="E7ZenpUqGneVZJgoKI6S-4" value="ZDT" style="rounded=0;whiteSpace=wrap;html=1;" vertex="1" parent="1">
          <mxGeometry x="180" y="230" width="60" height="140" as="geometry" />
        </mxCell>
        <mxCell id="E7ZenpUqGneVZJgoKI6S-6" value="APIGateway" style="rounded=1;whiteSpace=wrap;html=1;" vertex="1" parent="1">
          <mxGeometry x="40" y="150" width="200" height="60" as="geometry" />
        </mxCell>
        <mxCell id="E7ZenpUqGneVZJgoKI6S-7" value="8081" style="text;html=1;strokeColor=none;fillColor=none;align=center;verticalAlign=middle;whiteSpace=wrap;rounded=0;" vertex="1" parent="1">
          <mxGeometry x="40" y="150" width="60" height="30" as="geometry" />
        </mxCell>
        <mxCell id="E7ZenpUqGneVZJgoKI6S-8" value="7801" style="text;html=1;strokeColor=none;fillColor=none;align=center;verticalAlign=middle;whiteSpace=wrap;rounded=0;" vertex="1" parent="1">
          <mxGeometry x="40" y="230" width="60" height="30" as="geometry" />
        </mxCell>
        <mxCell id="E7ZenpUqGneVZJgoKI6S-9" value="7802" style="text;html=1;strokeColor=none;fillColor=none;align=center;verticalAlign=middle;whiteSpace=wrap;rounded=0;" vertex="1" parent="1">
          <mxGeometry x="110" y="230" width="60" height="30" as="geometry" />
        </mxCell>
        <mxCell id="E7ZenpUqGneVZJgoKI6S-11" value="7803" style="text;html=1;strokeColor=none;fillColor=none;align=center;verticalAlign=middle;whiteSpace=wrap;rounded=0;" vertex="1" parent="1">
          <mxGeometry x="180" y="230" width="60" height="30" as="geometry" />
        </mxCell>
        <mxCell id="E7ZenpUqGneVZJgoKI6S-12" value="" style="shape=cylinder3;whiteSpace=wrap;html=1;boundedLbl=1;backgroundOutline=1;size=15;" vertex="1" parent="1">
          <mxGeometry x="310" y="320" width="60" height="80" as="geometry" />
        </mxCell>
        <mxCell id="E7ZenpUqGneVZJgoKI6S-13" value="FMW" style="rounded=0;whiteSpace=wrap;html=1;" vertex="1" parent="1">
          <mxGeometry x="440" y="230" width="60" height="140" as="geometry" />
        </mxCell>
        <mxCell id="E7ZenpUqGneVZJgoKI6S-14" value="non ZDT" style="rounded=0;whiteSpace=wrap;html=1;" vertex="1" parent="1">
          <mxGeometry x="510" y="230" width="60" height="140" as="geometry" />
        </mxCell>
        <mxCell id="E7ZenpUqGneVZJgoKI6S-15" value="ZDT" style="rounded=0;whiteSpace=wrap;html=1;" vertex="1" parent="1">
          <mxGeometry x="580" y="230" width="60" height="140" as="geometry" />
        </mxCell>
        <mxCell id="E7ZenpUqGneVZJgoKI6S-16" value="APIGateway" style="rounded=1;whiteSpace=wrap;html=1;" vertex="1" parent="1">
          <mxGeometry x="440" y="150" width="200" height="60" as="geometry" />
        </mxCell>
        <mxCell id="E7ZenpUqGneVZJgoKI6S-17" value="8082" style="text;html=1;strokeColor=none;fillColor=none;align=center;verticalAlign=middle;whiteSpace=wrap;rounded=0;" vertex="1" parent="1">
          <mxGeometry x="440" y="150" width="60" height="30" as="geometry" />
        </mxCell>
        <mxCell id="E7ZenpUqGneVZJgoKI6S-18" value="7901" style="text;html=1;strokeColor=none;fillColor=none;align=center;verticalAlign=middle;whiteSpace=wrap;rounded=0;" vertex="1" parent="1">
          <mxGeometry x="440" y="230" width="60" height="30" as="geometry" />
        </mxCell>
        <mxCell id="E7ZenpUqGneVZJgoKI6S-19" value="7902" style="text;html=1;strokeColor=none;fillColor=none;align=center;verticalAlign=middle;whiteSpace=wrap;rounded=0;" vertex="1" parent="1">
          <mxGeometry x="510" y="230" width="60" height="30" as="geometry" />
        </mxCell>
        <mxCell id="E7ZenpUqGneVZJgoKI6S-20" value="7903" style="text;html=1;strokeColor=none;fillColor=none;align=center;verticalAlign=middle;whiteSpace=wrap;rounded=0;" vertex="1" parent="1">
          <mxGeometry x="580" y="230" width="60" height="30" as="geometry" />
        </mxCell>
      </root>
    </mxGraphModel>
  </diagram>
</mxfile>
